<?xml version="1.0" encoding="UTF-8"?>
<!DOCTYPE svg PUBLIC "-//W3C//DTD SVG 1.1//EN" "http://www.w3.org/Graphics/SVG/1.1/DTD/svg11.dtd">
<svg xmlns="http://www.w3.org/2000/svg" version="1.1" width="900px" height="900px" style="shape-rendering:geometricPrecision; text-rendering:geometricPrecision; image-rendering:optimizeQuality; fill-rule:evenodd; clip-rule:evenodd" xmlns:xlink="http://www.w3.org/1999/xlink">
<g><path style="opacity:1" fill="#fefefe" d="M -0.5,-0.5 C 299.5,-0.5 599.5,-0.5 899.5,-0.5C 899.5,299.5 899.5,599.5 899.5,899.5C 599.5,899.5 299.5,899.5 -0.5,899.5C -0.5,599.5 -0.5,299.5 -0.5,-0.5 Z"/></g>
<g><path style="opacity:1" fill="#251516" d="M 831.5,247.5 C 831.982,264.568 831.315,281.568 829.5,298.5C 826.77,324.471 813.77,343.304 790.5,355C 778.56,358.572 766.393,360.406 754,360.5C 743.328,387.021 733.162,413.688 723.5,440.5C 725.346,440.222 726.68,440.889 727.5,442.5C 704.02,511.712 680.52,581.045 657,650.5C 646.694,666.807 633.194,669.974 616.5,660C 611.247,655.659 607.913,650.159 606.5,643.5C 606.36,637.464 606.693,631.464 607.5,625.5C 609.709,618.745 612.209,612.078 615,605.5C 641.865,547.768 668.198,489.768 694,431.5C 695.054,429.246 696.554,428.913 698.5,430.5C 708.73,403.98 719.063,377.48 729.5,351C 723.369,345.2 717.536,339.034 712,332.5C 705.919,322.674 702.419,312.007 701.5,300.5C 702.035,293.153 702.701,285.819 703.5,278.5C 705.765,270.558 708.932,262.891 713,255.5C 728.121,231.379 747.621,211.545 771.5,196C 781.701,189.481 792.701,187.814 804.5,191C 816.557,198.594 824.057,209.427 827,223.5C 828.863,231.582 830.363,239.582 831.5,247.5 Z"/></g>
<g><path style="opacity:1" fill="#180d0e" d="M 451.5,204.5 C 450.391,205.29 449.058,205.79 447.5,206C 448.328,206.915 449.328,207.581 450.5,208C 449.549,211.057 449.216,214.223 449.5,217.5C 450.552,217.351 451.552,217.517 452.5,218C 451.167,218.333 449.833,218.667 448.5,219C 450.382,219.198 452.048,219.698 453.5,220.5C 451.585,220.216 449.919,220.549 448.5,221.5C 444.818,221.665 441.152,221.499 437.5,221C 439.932,219.913 439.598,219.413 436.5,219.5C 436.473,221.199 435.806,222.533 434.5,223.5C 367.222,235.302 317.056,270.969 284,330.5C 256.553,385.701 253.053,442.535 273.5,501C 287.046,535.77 308.379,564.77 337.5,588C 334.034,586.934 330.701,585.267 327.5,583C 263.001,536.498 232.335,473.331 235.5,393.5C 237.031,388.75 237.698,383.75 237.5,378.5C 251.754,303.816 293.42,250.649 362.5,219C 391.097,207.456 420.763,202.623 451.5,204.5 Z"/></g>
<g><path style="opacity:1" fill="#281a1b" d="M 451.5,204.5 C 491.794,206.484 528.127,219.15 560.5,242.5C 560.167,242.5 559.833,242.5 559.5,242.5C 526.131,226.391 490.798,219.058 453.5,220.5C 452.048,219.698 450.382,219.198 448.5,219C 449.833,218.667 451.167,218.333 452.5,218C 451.552,217.517 450.552,217.351 449.5,217.5C 449.216,214.223 449.549,211.057 450.5,208C 449.328,207.581 448.328,206.915 447.5,206C 449.058,205.79 450.391,205.29 451.5,204.5 Z"/></g>
<g><path style="opacity:1" fill="#433c3a" d="M 448.5,221.5 C 443.99,222.341 439.324,223.008 434.5,223.5C 435.806,222.533 436.473,221.199 436.5,219.5C 439.598,219.413 439.932,219.913 437.5,221C 441.152,221.499 444.818,221.665 448.5,221.5 Z"/></g>
<g><path style="opacity:1" fill="#170d0d" d="M 184.5,288.5 C 184.41,291.152 185.076,293.485 186.5,295.5C 190.561,311.366 187.728,326.033 178,339.5C 174.451,342.713 171.284,346.213 168.5,350C 177.963,377.229 188.296,404.063 199.5,430.5C 202.445,429.118 204.278,430.118 205,433.5C 231.716,493.268 258.716,552.935 286,612.5C 288.013,617.878 290.013,623.211 292,628.5C 295.135,646.406 288.302,658.573 271.5,665C 259.536,668.014 250.036,664.514 243,654.5C 240.829,650.158 238.662,645.824 236.5,641.5C 214.878,574.302 192.878,507.302 170.5,440.5C 171.5,440.5 172.5,440.5 173.5,440.5C 164.084,412.914 154.084,385.581 143.5,358.5C 119.271,359.089 102.105,348.423 92,326.5C 88.9229,316.606 86.4229,306.606 84.5,296.5C 84.5797,293.219 83.913,290.219 82.5,287.5C 80.6691,276.185 79.0024,264.852 77.5,253.5C 77.1667,244.167 76.8333,234.833 76.5,225.5C 78.6774,222.939 80.8441,222.939 83,225.5C 88.9514,241.048 95.1181,256.381 101.5,271.5C 107.225,287.17 113.058,302.837 119,318.5C 120.45,322.671 123.117,324.005 127,322.5C 127.667,320.5 127.667,318.5 127,316.5C 120.1,297.949 112.933,279.616 105.5,261.5C 100.709,248.466 95.7088,235.466 90.5,222.5C 92.1471,217.69 95.3138,216.357 100,218.5C 112.442,251.161 125.276,283.661 138.5,316C 144.08,317.261 145.913,315.094 144,309.5C 131.64,278.09 119.474,246.59 107.5,215C 109.239,210.705 112.239,209.538 116.5,211.5C 129.481,243.269 141.981,275.269 154,307.5C 160.469,312.39 162.802,310.723 161,302.5C 148.644,271.104 136.478,239.604 124.5,208C 124.645,207.228 124.978,206.561 125.5,206C 127.167,205.333 128.833,205.333 130.5,206C 151.894,231.291 169.894,258.791 184.5,288.5 Z"/></g>
<g><path style="opacity:1" fill="#979392" d="M 76.5,225.5 C 76.8333,234.833 77.1667,244.167 77.5,253.5C 75.6682,244.199 75.3348,234.866 76.5,225.5 Z"/></g>
<g><path style="opacity:1" fill="#b4b1b1" d="M 472.5,234.5 C 468.818,234.335 465.152,234.501 461.5,235C 464.365,235.183 467.031,235.683 469.5,236.5C 464.833,236.5 460.167,236.5 455.5,236.5C 455.5,235.5 455.5,234.5 455.5,233.5C 461.358,233.178 467.025,233.511 472.5,234.5 Z"/></g>
<g><path style="opacity:1" fill="#969696" d="M 559.5,242.5 C 559.833,242.5 560.167,242.5 560.5,242.5C 561.922,242.709 563.255,243.209 564.5,244C 565.696,244.654 565.696,245.154 564.5,245.5C 562.241,245.216 560.574,244.216 559.5,242.5 Z"/></g>
<g><path style="opacity:1" fill="#f2f1f0" d="M 105.5,261.5 C 112.933,279.616 120.1,297.949 127,316.5C 127.667,318.5 127.667,320.5 127,322.5C 123.117,324.005 120.45,322.671 119,318.5C 113.058,302.837 107.225,287.17 101.5,271.5C 102.232,270.192 103.066,268.858 104,267.5C 105.156,268.993 105.99,268.826 106.5,267C 105.767,265.234 105.433,263.401 105.5,261.5 Z"/></g>
<g><path style="opacity:1" fill="#868283" d="M 831.5,247.5 C 832.661,261.327 832.827,275.327 832,289.5C 831.796,292.797 830.963,295.797 829.5,298.5C 831.315,281.568 831.982,264.568 831.5,247.5 Z"/></g>
<g><path style="opacity:1" fill="#585151" d="M 184.5,288.5 C 185.924,290.515 186.59,292.848 186.5,295.5C 185.076,293.485 184.41,291.152 184.5,288.5 Z"/></g>
<g><path style="opacity:1" fill="#423739" d="M 703.5,278.5 C 702.701,285.819 702.035,293.153 701.5,300.5C 700.355,296.689 700.188,292.689 701,288.5C 701.149,284.867 701.982,281.534 703.5,278.5 Z"/></g>
<g><path style="opacity:1" fill="#797474" d="M 82.5,287.5 C 83.913,290.219 84.5797,293.219 84.5,296.5C 83.087,293.781 82.4203,290.781 82.5,287.5 Z"/></g>
<g><path style="opacity:1" fill="#251617" d="M 472.5,234.5 C 531.364,237.183 579.864,260.85 618,305.5C 640.549,333.607 654.049,365.607 658.5,401.5C 658.911,406.338 659.578,411.005 660.5,415.5C 662.235,491.203 631.902,550.037 569.5,592C 550.28,602.943 529.947,611.11 508.5,616.5C 504.878,616.322 501.544,616.989 498.5,618.5C 490.242,619.971 481.909,620.638 473.5,620.5C 468.637,620.819 463.97,620.486 459.5,619.5C 544.437,606.708 599.771,559.374 625.5,477.5C 626.866,474.039 627.866,470.373 628.5,466.5C 629.567,458.831 630.567,451.164 631.5,443.5C 632.166,438.344 632.499,433.011 632.5,427.5C 632.71,419.932 632.044,412.599 630.5,405.5C 619.48,330.31 579.147,277.477 509.5,247C 496.402,242.559 483.068,239.059 469.5,236.5C 467.031,235.683 464.365,235.183 461.5,235C 465.152,234.501 468.818,234.335 472.5,234.5 Z"/></g>
<g><path style="opacity:1" fill="#801711" d="M 450.5,363.5 C 449.501,416.664 449.168,469.997 449.5,523.5C 418.017,503.784 389.517,480.118 364,452.5C 352.065,438.964 342.398,423.964 335,407.5C 328.515,386.743 331.848,367.743 345,350.5C 349.846,345.656 355.012,341.156 360.5,337C 392.778,322.285 420.944,327.785 445,353.5C 447.619,356.406 449.453,359.739 450.5,363.5 Z"/></g>
<g><path style="opacity:1" fill="#e12c21" d="M 571.5,376.5 C 572.358,384.132 572.691,391.799 572.5,399.5C 570.898,403.239 569.898,407.239 569.5,411.5C 559.755,433.792 545.755,453.292 527.5,470C 504.896,490.6 480.563,508.934 454.5,525C 452.326,525.877 450.659,525.377 449.5,523.5C 449.168,469.997 449.501,416.664 450.5,363.5C 451.212,364.739 452.212,365.239 453.5,365C 463.386,352.107 475.386,341.773 489.5,334C 513.43,324.942 535.097,328.609 554.5,345C 563.483,353.806 569.15,364.306 571.5,376.5 Z"/></g>
<g><path style="opacity:1" fill="#655f5e" d="M 237.5,378.5 C 237.698,383.75 237.031,388.75 235.5,393.5C 235.444,388.269 236.111,383.269 237.5,378.5 Z"/></g>
<g><path style="opacity:1" fill="#ea6e63" d="M 571.5,376.5 C 572.222,376.918 572.722,377.584 573,378.5C 573.821,385.679 573.655,392.679 572.5,399.5C 572.691,391.799 572.358,384.132 571.5,376.5 Z"/></g>
<g><path style="opacity:1" fill="#7f7a7a" d="M 302.5,398.5 C 302.259,403.694 301.593,408.694 300.5,413.5C 300.189,408.234 300.855,403.234 302.5,398.5 Z"/></g>
<g><path style="opacity:1" fill="#f9beb9" d="M 572.5,399.5 C 572.82,402.898 572.487,406.232 571.5,409.5C 570.818,410.243 570.151,410.909 569.5,411.5C 569.898,407.239 570.898,403.239 572.5,399.5 Z"/></g>
<g><path style="opacity:1" fill="#938e8d" d="M 658.5,401.5 C 659.268,402.263 659.768,403.263 660,404.5C 660.499,408.152 660.665,411.818 660.5,415.5C 659.578,411.005 658.911,406.338 658.5,401.5 Z"/></g>
<g><path style="opacity:1" fill="#766c6d" d="M 630.5,405.5 C 632.044,412.599 632.71,419.932 632.5,427.5C 632.499,433.011 632.166,438.344 631.5,443.5C 631.655,430.815 631.322,418.149 630.5,405.5 Z"/></g>
<g><path style="opacity:1" fill="#989595" d="M 300.5,413.5 C 300.486,424.846 300.819,436.179 301.5,447.5C 299.446,436.206 299.113,424.872 300.5,413.5 Z"/></g>
<g><path style="opacity:1" fill="#c7ee9b" d="M 815.5,428.5 C 805.781,428.218 796.114,428.551 786.5,429.5C 786.611,428.883 786.944,428.383 787.5,428C 797.009,427.176 806.343,427.342 815.5,428.5 Z"/></g>
<g><path style="opacity:1" fill="#d3eeb6" d="M 815.5,428.5 C 820.64,427.91 825.307,428.91 829.5,431.5C 824.766,430.334 820.1,429.334 815.5,428.5 Z"/></g>
<g><path style="opacity:1" fill="#487016" d="M 158.5,457.5 C 159.212,459.928 160.212,462.261 161.5,464.5C 161.167,464.833 160.833,465.167 160.5,465.5C 148.475,460.744 136.142,457.078 123.5,454.5C 109.134,451.356 94.4678,449.69 79.5,449.5C 72.1325,449.464 64.7991,449.964 57.5,451C 63.4908,451.499 69.4908,451.666 75.5,451.5C 91.1981,452.355 106.865,454.022 122.5,456.5C 128.013,458.438 133.679,459.938 139.5,461C 145.402,463.799 151.402,466.299 157.5,468.5C 164.995,472.508 172.162,477.175 179,482.5C 181.31,488.414 182.976,494.414 184,500.5C 179.167,496.333 174.333,492.167 169.5,488C 167.067,486.368 164.567,484.868 162,483.5C 155.472,489.695 148.639,495.528 141.5,501C 137.075,503.213 132.741,505.379 128.5,507.5C 119.167,508.833 109.833,508.833 100.5,507.5C 93.4589,505.819 86.7922,503.152 80.5,499.5C 66.9758,488.809 53.3092,478.309 39.5,468C 34.8022,465.651 30.1356,463.318 25.5,461C 19.9123,459.435 14.2457,458.268 8.5,457.5C 39.0922,435.263 73.4255,425.596 111.5,428.5C 117.872,430.177 124.206,432.01 130.5,434C 134.666,436.917 138.999,439.584 143.5,442C 148.731,447.062 153.731,452.229 158.5,457.5 Z"/></g>
<g><path style="opacity:1" fill="#eef8dc" d="M 879.5,449.5 C 873.721,448.022 868.388,445.688 863.5,442.5C 866.252,442.422 868.918,442.255 871.5,442C 870.833,442.667 870.167,443.333 869.5,444C 874.401,444.368 877.734,446.201 879.5,449.5 Z"/></g>
<g><path style="opacity:1" fill="#a19b9b" d="M 292.5,436.5 C 292.473,448.18 292.806,459.846 293.5,471.5C 292.101,464.214 291.435,456.714 291.5,449C 291.501,444.653 291.834,440.486 292.5,436.5 Z"/></g>
<g><path style="opacity:1" fill="#7fcb2a" d="M 815.5,428.5 C 820.1,429.334 824.766,430.334 829.5,431.5C 833.964,431.598 838.297,432.431 842.5,434C 849.599,436.893 856.599,439.726 863.5,442.5C 868.388,445.688 873.721,448.022 879.5,449.5C 881.525,451.075 883.525,452.908 885.5,455C 886.448,455.483 887.448,455.649 888.5,455.5C 882.27,458.209 875.604,460.375 868.5,462C 867.944,462.383 867.611,462.883 867.5,463.5C 856.151,468.513 846.151,475.513 837.5,484.5C 833.808,486.344 830.475,488.677 827.5,491.5C 822.924,494.215 818.59,497.381 814.5,501C 809.856,502.328 805.523,504.161 801.5,506.5C 797.863,506.87 794.53,507.87 791.5,509.5C 790.5,509.5 789.5,509.5 788.5,509.5C 781.396,509.749 774.396,509.082 767.5,507.5C 762.362,504.763 757.362,501.763 752.5,498.5C 751.614,497.675 751.281,496.675 751.5,495.5C 750.448,495.649 749.448,495.483 748.5,495C 744.622,490.786 740.455,486.952 736,483.5C 729.865,487.144 724.032,491.144 718.5,495.5C 717.414,495.38 716.747,494.713 716.5,493.5C 717.586,490.58 718.252,487.58 718.5,484.5C 719.067,482.97 719.733,481.47 720.5,480C 727.483,475.014 734.817,470.848 742.5,467.5C 749.528,464.234 756.862,461.568 764.5,459.5C 778.653,456.145 792.986,453.811 807.5,452.5C 819.838,452.667 832.171,452.5 844.5,452C 840.454,449.826 836.121,448.993 831.5,449.5C 817.143,449.323 802.81,449.823 788.5,451C 779.102,452.24 770.102,454.406 761.5,457.5C 755.543,458.43 749.876,460.264 744.5,463C 742.19,463.497 739.857,463.663 737.5,463.5C 744.788,448.715 756.121,438.215 771.5,432C 776.383,430.414 781.383,429.581 786.5,429.5C 796.114,428.551 805.781,428.218 815.5,428.5 Z"/></g>
<g><path style="opacity:1" fill="#a7c87e" d="M 79.5,449.5 C 78.1667,450.167 76.8333,450.833 75.5,451.5C 69.4908,451.666 63.4908,451.499 57.5,451C 64.7991,449.964 72.1325,449.464 79.5,449.5 Z"/></g>
<g><path style="opacity:1" fill="#ddf3c0" d="M 831.5,449.5 C 823.719,451.154 815.719,452.154 807.5,452.5C 792.986,453.811 778.653,456.145 764.5,459.5C 764.611,458.883 764.944,458.383 765.5,458C 764.207,457.51 762.873,457.343 761.5,457.5C 770.102,454.406 779.102,452.24 788.5,451C 802.81,449.823 817.143,449.323 831.5,449.5 Z"/></g>
<g><path style="opacity:1" fill="#d0e0bb" d="M 79.5,449.5 C 94.4678,449.69 109.134,451.356 123.5,454.5C 121.801,454.34 120.134,454.506 118.5,455C 120.058,455.21 121.391,455.71 122.5,456.5C 106.865,454.022 91.1981,452.355 75.5,451.5C 76.8333,450.833 78.1667,450.167 79.5,449.5 Z"/></g>
<g><path style="opacity:1" fill="#a0da5b" d="M 831.5,449.5 C 836.121,448.993 840.454,449.826 844.5,452C 832.171,452.5 819.838,452.667 807.5,452.5C 815.719,452.154 823.719,451.154 831.5,449.5 Z"/></g>
<g><path style="opacity:1" fill="#f1fae4" d="M 761.5,457.5 C 762.873,457.343 764.207,457.51 765.5,458C 764.944,458.383 764.611,458.883 764.5,459.5C 756.862,461.568 749.528,464.234 742.5,467.5C 743.562,466.425 743.562,465.425 742.5,464.5C 740.49,466.171 738.157,466.838 735.5,466.5C 735.285,464.821 735.952,463.821 737.5,463.5C 739.857,463.663 742.19,463.497 744.5,463C 749.876,460.264 755.543,458.43 761.5,457.5 Z"/></g>
<g><path style="opacity:1" fill="#e6f6cf" d="M 888.5,455.5 C 889.404,456.209 889.737,457.209 889.5,458.5C 882.082,459.733 874.749,461.4 867.5,463.5C 867.611,462.883 867.944,462.383 868.5,462C 875.604,460.375 882.27,458.209 888.5,455.5 Z"/></g>
<g><path style="opacity:1" fill="#f1f8e7" d="M 123.5,454.5 C 136.142,457.078 148.475,460.744 160.5,465.5C 160.833,465.167 161.167,464.833 161.5,464.5C 160.212,462.261 159.212,459.928 158.5,457.5C 162.683,458.705 164.016,461.372 162.5,465.5C 160.577,466.308 158.577,466.808 156.5,467C 157.056,467.383 157.389,467.883 157.5,468.5C 151.402,466.299 145.402,463.799 139.5,461C 133.679,459.938 128.013,458.438 122.5,456.5C 121.391,455.71 120.058,455.21 118.5,455C 120.134,454.506 121.801,454.34 123.5,454.5 Z"/></g>
<g><path style="opacity:1" fill="#aaa1a3" d="M 628.5,466.5 C 627.866,470.373 626.866,474.039 625.5,477.5C 625.674,474.126 626.174,470.793 627,467.5C 627.383,466.944 627.883,466.611 628.5,466.5 Z"/></g>
<g><path style="opacity:1" fill="#e5f8cf" d="M 837.5,484.5 C 835.223,488.308 831.89,490.641 827.5,491.5C 830.475,488.677 833.808,486.344 837.5,484.5 Z"/></g>
<g><path style="opacity:1" fill="#9ccf5d" d="M 718.5,484.5 C 718.252,487.58 717.586,490.58 716.5,493.5C 716.747,494.713 717.414,495.38 718.5,495.5C 717.647,497.893 715.981,499.226 713.5,499.5C 714.194,494.085 715.86,489.085 718.5,484.5 Z"/></g>
<g><path style="opacity:1" fill="#180e0e" d="M 302.5,398.5 C 300.855,403.234 300.189,408.234 300.5,413.5C 299.113,424.872 299.446,436.206 301.5,447.5C 311.04,505.212 342.373,546.379 395.5,571C 407.248,575.308 419.248,578.475 431.5,580.5C 436.944,581.884 442.611,582.55 448.5,582.5C 448.833,582.5 449.167,582.5 449.5,582.5C 450.37,584.032 450.036,585.532 448.5,587C 448.896,593.037 449.896,598.87 451.5,604.5C 444.132,604.683 436.799,604.35 429.5,603.5C 364.725,593.226 321.225,557.226 299,495.5C 297.046,487.398 295.213,479.398 293.5,471.5C 292.806,459.846 292.473,448.18 292.5,436.5C 293.683,420.105 297.516,404.438 304,389.5C 303.995,392.536 303.495,395.536 302.5,398.5 Z"/></g>
<g><path style="opacity:1" fill="#89a563" d="M 100.5,507.5 C 109.833,508.833 119.167,508.833 128.5,507.5C 124.652,509.308 120.485,510.308 116,510.5C 111.5,510 107,509.5 102.5,509C 101.584,508.722 100.918,508.222 100.5,507.5 Z"/></g>
<g><path style="opacity:1" fill="#d9f2b8" d="M 801.5,506.5 C 801.03,507.693 800.03,508.36 798.5,508.5C 796.182,508.997 793.848,509.33 791.5,509.5C 794.53,507.87 797.863,506.87 801.5,506.5 Z"/></g>
<g><path style="opacity:1" fill="#e6f7ce" d="M 767.5,507.5 C 774.396,509.082 781.396,509.749 788.5,509.5C 782.654,510.817 776.654,510.817 770.5,509.5C 769.398,508.824 768.398,508.158 767.5,507.5 Z"/></g>
<g><path style="opacity:1" fill="#261718" d="M 459.5,604.5 C 456.833,604.5 454.167,604.5 451.5,604.5C 449.896,598.87 448.896,593.037 448.5,587C 450.036,585.532 450.37,584.032 449.5,582.5C 457.684,582.826 465.684,582.492 473.5,581.5C 481.501,581.334 489.168,580.001 496.5,577.5C 542.665,564.171 576.165,535.837 597,492.5C 591.179,514.472 580.846,534.139 566,551.5C 536.986,582.424 501.486,600.091 459.5,604.5 Z"/></g>
<g><path style="opacity:1" fill="#928a8b" d="M 496.5,577.5 C 489.168,580.001 481.501,581.334 473.5,581.5C 480.984,579.863 488.651,578.529 496.5,577.5 Z"/></g>
<g><path style="opacity:1" fill="#bbb4b5" d="M 431.5,580.5 C 437.404,580.321 443.071,580.988 448.5,582.5C 442.611,582.55 436.944,581.884 431.5,580.5 Z"/></g>
<g><path style="opacity:1" fill="#c9c4c5" d="M 429.5,603.5 C 436.799,604.35 444.132,604.683 451.5,604.5C 454.167,604.5 456.833,604.5 459.5,604.5C 450.343,605.658 441.009,605.824 431.5,605C 430.584,604.722 429.918,604.222 429.5,603.5 Z"/></g>
<g><path style="opacity:1" fill="#999291" d="M 508.5,616.5 C 505.411,617.785 502.078,618.451 498.5,618.5C 501.544,616.989 504.878,616.322 508.5,616.5 Z"/></g>
<g><path style="opacity:1" fill="#938c8d" d="M 459.5,619.5 C 463.97,620.486 468.637,620.819 473.5,620.5C 467.654,621.817 461.654,621.817 455.5,620.5C 456.689,619.571 458.022,619.238 459.5,619.5 Z"/></g>
<g><path style="opacity:1" fill="#706569" d="M 607.5,625.5 C 606.693,631.464 606.36,637.464 606.5,643.5C 605.836,641.19 605.503,638.69 605.5,636C 605.304,632.195 605.97,628.695 607.5,625.5 Z"/></g>
</svg>
