<?xml version="1.0" encoding="UTF-8"?>
<!DOCTYPE svg PUBLIC "-//W3C//DTD SVG 1.1//EN" "http://www.w3.org/Graphics/SVG/1.1/DTD/svg11.dtd">
<svg xmlns="http://www.w3.org/2000/svg" version="1.1" width="100px" height="100px" style="shape-rendering:geometricPrecision; text-rendering:geometricPrecision; image-rendering:optimizeQuality; fill-rule:evenodd; clip-rule:evenodd" xmlns:xlink="http://www.w3.org/1999/xlink">
<g><path style="opacity:1" fill="#f4f4f4" d="M 19.5,-0.5 C 29.8333,-0.5 40.1667,-0.5 50.5,-0.5C 50.4226,0.749754 49.756,1.58309 48.5,2C 49.1383,3.70666 49.1383,5.53999 48.5,7.5C 47.6618,7.84171 47.3284,8.50838 47.5,9.5C 43.2984,9.18325 39.2984,9.51658 35.5,10.5C 34.1667,10.8333 32.8333,11.1667 31.5,11.5C 17.0735,16.3184 8.74021,26.3184 6.5,41.5C 5.83855,40.2825 5.17189,38.9492 4.5,37.5C 3.89333,37.6236 3.55999,37.9569 3.5,38.5C 3.16667,38.5 2.83333,38.5 2.5,38.5C 2.06178,38.5654 1.72845,38.3988 1.5,38C 3.83333,36.3333 5.83333,34.3333 7.5,32C 6.35308,29.9154 7.01975,28.4154 9.5,27.5C 10.9,24.9646 11.9,22.298 12.5,19.5C 13.9217,19.2914 15.255,18.7914 16.5,18C 16.1667,17.6667 15.8333,17.3333 15.5,17C 16.6667,16.5 17.5,15.6667 18,14.5C 19.5069,15.5348 21.0069,15.3681 22.5,14C 24.2834,12.2613 25.9501,10.4279 27.5,8.5C 25.6769,7.50907 24.1769,6.17574 23,4.5C 22.4646,6.27055 21.6313,6.60388 20.5,5.5C 20.032,3.86618 19.032,2.69951 17.5,2C 18.756,1.58309 19.4226,0.749754 19.5,-0.5 Z"/></g>
<g><path style="opacity:1" fill="#f2f2f2" d="M 82.5,-0.5 C 88.1667,-0.5 93.8333,-0.5 99.5,-0.5C 99.5,6.83333 99.5,14.1667 99.5,21.5C 97.8007,21.5271 96.4674,22.1938 95.5,23.5C 94.5266,23.0133 93.5266,22.5133 92.5,22C 94.1667,20.3333 95.8333,18.6667 97.5,17C 96.354,16.3551 95.354,15.5217 94.5,14.5C 93.8076,15.0253 93.3076,15.6919 93,16.5C 92.3551,15.354 91.5217,14.354 90.5,13.5C 91.0253,12.8076 91.6919,12.3076 92.5,12C 91.3094,11.3021 90.3094,10.4687 89.5,9.5C 87.9139,8.58679 86.4139,8.58679 85,9.5C 84.5,8.33333 83.6667,7.5 82.5,7C 85.028,5.98259 85.028,4.81592 82.5,3.5C 83.0253,2.80762 83.6919,2.30762 84.5,2C 83.244,1.58309 82.5774,0.749754 82.5,-0.5 Z"/></g>
<g><path style="opacity:1" fill="#b9a954" d="M 66.5,8.5 C 71.4654,15.4077 77.1321,21.7411 83.5,27.5C 82.2057,31.9339 82.2057,36.2673 83.5,40.5C 83.8333,41.1667 84.1667,41.8333 84.5,42.5C 84.5,46.8333 84.5,51.1667 84.5,55.5C 82.8333,56.8333 81.1667,58.1667 79.5,59.5C 80.8655,52.8107 80.6989,46.144 79,39.5C 78.6174,38.944 78.1174,38.6107 77.5,38.5C 74.8598,26.685 68.1931,17.8517 57.5,12C 54.2799,10.6476 50.9466,9.81425 47.5,9.5C 47.3284,8.50838 47.6618,7.84171 48.5,7.5C 51.147,5.18915 53.8136,2.85581 56.5,0.5C 59.5828,3.59389 62.9161,6.26055 66.5,8.5 Z"/></g>
<g><path style="opacity:1" fill="#f1f0ed" d="M 50.5,-0.5 C 58.1667,-0.5 65.8333,-0.5 73.5,-0.5C 72.7407,1.4308 71.4074,2.9308 69.5,4C 70.756,4.41691 71.4226,5.25025 71.5,6.5C 69.7162,6.89254 68.0495,7.5592 66.5,8.5C 62.9161,6.26055 59.5828,3.59389 56.5,0.5C 53.8136,2.85581 51.147,5.18915 48.5,7.5C 49.1383,5.53999 49.1383,3.70666 48.5,2C 49.756,1.58309 50.4226,0.749754 50.5,-0.5 Z"/></g>
<g><path style="opacity:1" fill="#f2f2f2" d="M -0.5,-0.5 C 0.5,-0.5 1.5,-0.5 2.5,-0.5C 4.77009,1.44898 6.77009,3.78231 8.5,6.5C 9.19238,5.97473 9.69238,5.30806 10,4.5C 10.5,5.66667 11.3333,6.5 12.5,7C 10.6243,7.9184 9.62435,9.4184 9.5,11.5C 7.94677,13.3134 6.2801,15.1467 4.5,17C 5.44915,17.6172 6.28248,17.4506 7,16.5C 7.30762,17.3081 7.80762,17.9747 8.5,18.5C 9.5,17.1667 10.5,15.8333 11.5,14.5C 11.5786,16.1283 11.9119,17.7949 12.5,19.5C 10.8235,20.1834 10.1568,21.5168 10.5,23.5C 8.09685,23.393 6.26351,24.393 5,26.5C 4,23.8333 3,23.8333 2,26.5C 1.58309,25.244 0.749754,24.5774 -0.5,24.5C -0.5,16.1667 -0.5,7.83333 -0.5,-0.5 Z"/></g>
<g><path style="opacity:1" fill="#f4f4f4" d="M 2.5,-0.5 C 6.5,-0.5 10.5,-0.5 14.5,-0.5C 14.4226,0.749754 13.756,1.58309 12.5,2C 15.0115,5.01054 17.6782,7.84388 20.5,10.5C 18.4474,12.9356 16.614,12.6023 15,9.5C 14,12.1667 13,12.1667 12,9.5C 11.5831,10.756 10.7498,11.4226 9.5,11.5C 9.62435,9.4184 10.6243,7.9184 12.5,7C 11.3333,6.5 10.5,5.66667 10,4.5C 9.69238,5.30806 9.19238,5.97473 8.5,6.5C 6.77009,3.78231 4.77009,1.44898 2.5,-0.5 Z"/></g>
<g><path style="opacity:1" fill="#b86c20" d="M 83.5,27.5 C 77.1321,21.7411 71.4654,15.4077 66.5,8.5C 68.0495,7.5592 69.7162,6.89254 71.5,6.5C 72.5754,5.43764 73.5754,5.43764 74.5,6.5C 77.7878,13.4054 80.7878,20.4054 83.5,27.5 Z"/></g>
<g><path style="opacity:1" fill="#e9e6dd" d="M 73.5,-0.5 C 73.8333,-0.5 74.1667,-0.5 74.5,-0.5C 74.4538,2.55147 75.4538,5.21814 77.5,7.5C 80.3371,9.17206 82.6704,11.3387 84.5,14C 81.8333,15 81.8333,16 84.5,17C 83.6919,17.3076 83.0253,17.8076 82.5,18.5C 83.5217,19.354 84.3551,20.354 85,21.5C 85.3333,24.5 85.6667,27.5 86,30.5C 86.3333,28.1667 86.6667,25.8333 87,23.5C 87.499,27.8206 87.6657,32.1539 87.5,36.5C 86.1667,36.5 84.8333,36.5 83.5,36.5C 83.5,37.8333 83.5,39.1667 83.5,40.5C 82.2057,36.2673 82.2057,31.9339 83.5,27.5C 80.7878,20.4054 77.7878,13.4054 74.5,6.5C 73.5754,5.43764 72.5754,5.43764 71.5,6.5C 71.4226,5.25025 70.756,4.41691 69.5,4C 71.4074,2.9308 72.7407,1.4308 73.5,-0.5 Z"/></g>
<g><path style="opacity:1" fill="#ececc5" d="M 35.5,10.5 C 57.0606,9.02174 70.5606,18.6884 76,39.5C 76.6873,45.2037 76.5207,50.8704 75.5,56.5C 74.8333,55.1667 74.1667,53.8333 73.5,52.5C 73.1667,52.5 72.8333,52.5 72.5,52.5C 71.2921,49.9558 69.2921,48.6225 66.5,48.5C 66.5,48.1667 66.5,47.8333 66.5,47.5C 68.1947,46.9886 69.8614,46.3219 71.5,45.5C 71.1667,44.8333 70.8333,44.1667 70.5,43.5C 74.4394,40.0902 74.4394,36.7568 70.5,33.5C 71.0431,33.44 71.3764,33.1067 71.5,32.5C 70.8075,31.4822 70.1408,30.4822 69.5,29.5C 69.9382,29.5654 70.2716,29.3988 70.5,29C 66.8716,24.6841 62.205,22.1841 56.5,21.5C 55.2411,18.23 52.9078,16.5633 49.5,16.5C 47.9007,14.2712 45.9007,13.9378 43.5,15.5C 40.6354,15.9452 38.1354,15.2785 36,13.5C 35.3333,14.1667 34.6667,14.8333 34,15.5C 33.3292,14.7476 32.4959,14.4142 31.5,14.5C 31.9175,13.7784 32.5842,13.2784 33.5,13C 32.5842,12.7216 31.9175,12.2216 31.5,11.5C 32.8333,11.1667 34.1667,10.8333 35.5,10.5 Z"/></g>
<g><path style="opacity:1" fill="#f0f0f0" d="M 14.5,-0.5 C 16.1667,-0.5 17.8333,-0.5 19.5,-0.5C 19.4226,0.749754 18.756,1.58309 17.5,2C 19.032,2.69951 20.032,3.86618 20.5,5.5C 21.6313,6.60388 22.4646,6.27055 23,4.5C 24.1769,6.17574 25.6769,7.50907 27.5,8.5C 25.9501,10.4279 24.2834,12.2613 22.5,14C 21.0069,15.3681 19.5069,15.5348 18,14.5C 17.5,15.6667 16.6667,16.5 15.5,17C 15.8333,17.3333 16.1667,17.6667 16.5,18C 15.255,18.7914 13.9217,19.2914 12.5,19.5C 11.9119,17.7949 11.5786,16.1283 11.5,14.5C 10.5,15.8333 9.5,17.1667 8.5,18.5C 7.80762,17.9747 7.30762,17.3081 7,16.5C 6.28248,17.4506 5.44915,17.6172 4.5,17C 6.2801,15.1467 7.94677,13.3134 9.5,11.5C 10.7498,11.4226 11.5831,10.756 12,9.5C 13,12.1667 14,12.1667 15,9.5C 16.614,12.6023 18.4474,12.9356 20.5,10.5C 17.6782,7.84388 15.0115,5.01054 12.5,2C 13.756,1.58309 14.4226,0.749754 14.5,-0.5 Z"/></g>
<g><path style="opacity:1" fill="#f5f5f4" d="M 74.5,-0.5 C 77.1667,-0.5 79.8333,-0.5 82.5,-0.5C 82.5774,0.749754 83.244,1.58309 84.5,2C 83.6919,2.30762 83.0253,2.80762 82.5,3.5C 85.028,4.81592 85.028,5.98259 82.5,7C 83.6667,7.5 84.5,8.33333 85,9.5C 86.4139,8.58679 87.9139,8.58679 89.5,9.5C 89.4226,10.7498 88.756,11.5831 87.5,12C 90.028,13.0174 90.028,14.1841 87.5,15.5C 88.0253,16.1924 88.6919,16.6924 89.5,17C 88.6919,17.3076 88.0253,17.8076 87.5,18.5C 88.8848,19.5505 89.8848,20.8839 90.5,22.5C 88.4752,26.9313 87.9752,31.598 89,36.5C 89.3333,32.5 89.6667,28.5 90,24.5C 90.4986,28.1516 90.6653,31.8183 90.5,35.5C 90.7128,38.4509 90.0461,41.1175 88.5,43.5C 87.8423,44.3984 87.1757,45.3984 86.5,46.5C 85.8281,45.0508 85.1614,43.7175 84.5,42.5C 84.1667,41.8333 83.8333,41.1667 83.5,40.5C 83.5,39.1667 83.5,37.8333 83.5,36.5C 84.8333,36.5 86.1667,36.5 87.5,36.5C 87.6657,32.1539 87.499,27.8206 87,23.5C 86.6667,25.8333 86.3333,28.1667 86,30.5C 85.6667,27.5 85.3333,24.5 85,21.5C 84.3551,20.354 83.5217,19.354 82.5,18.5C 83.0253,17.8076 83.6919,17.3076 84.5,17C 81.8333,16 81.8333,15 84.5,14C 82.6704,11.3387 80.3371,9.17206 77.5,7.5C 75.4538,5.21814 74.4538,2.55147 74.5,-0.5 Z"/></g>
<g><path style="opacity:1" fill="#ecebc4" d="M 31.5,11.5 C 31.9175,12.2216 32.5842,12.7216 33.5,13C 32.5842,13.2784 31.9175,13.7784 31.5,14.5C 30.603,15.5981 29.7697,15.5981 29,14.5C 26.6017,16.9777 26.1017,19.6443 27.5,22.5C 28.4935,24.8543 27.4935,25.8543 24.5,25.5C 24.719,24.325 24.3857,23.325 23.5,22.5C 22.7717,24.1932 21.7717,25.6932 20.5,27C 21.3081,27.3076 21.9747,27.8076 22.5,28.5C 21.6518,30.4086 21.3184,32.4086 21.5,34.5C 14.4193,33.7453 10.4193,36.912 9.5,44C 9.54757,46.922 10.5476,49.422 12.5,51.5C 11.2921,52.2341 9.95875,52.5674 8.5,52.5C 8.63318,49.075 7.96651,48.7417 6.5,51.5C 6.5,48.1667 6.5,44.8333 6.5,41.5C 8.74021,26.3184 17.0735,16.3184 31.5,11.5 Z"/></g>
<g><path style="opacity:1" fill="#ededeb" d="M 89.5,9.5 C 90.3094,10.4687 91.3094,11.3021 92.5,12C 91.6919,12.3076 91.0253,12.8076 90.5,13.5C 91.5217,14.354 92.3551,15.354 93,16.5C 93.3076,15.6919 93.8076,15.0253 94.5,14.5C 95.354,15.5217 96.354,16.3551 97.5,17C 95.8333,18.6667 94.1667,20.3333 92.5,22C 93.5266,22.5133 94.5266,23.0133 95.5,23.5C 94.9645,27.819 94.4645,32.1523 94,36.5C 93.6174,37.056 93.1174,37.3893 92.5,37.5C 92.1667,36.5 91.5,35.8333 90.5,35.5C 90.6653,31.8183 90.4986,28.1516 90,24.5C 89.6667,28.5 89.3333,32.5 89,36.5C 87.9752,31.598 88.4752,26.9313 90.5,22.5C 89.8848,20.8839 88.8848,19.5505 87.5,18.5C 88.0253,17.8076 88.6919,17.3076 89.5,17C 88.6919,16.6924 88.0253,16.1924 87.5,15.5C 90.028,14.1841 90.028,13.0174 87.5,12C 88.756,11.5831 89.4226,10.7498 89.5,9.5 Z"/></g>
<g><path style="opacity:1" fill="#d44d31" d="M 49.5,16.5 C 48.5084,16.3284 47.8417,16.6618 47.5,17.5C 43.7881,21.6441 42.4548,20.9774 43.5,15.5C 45.9007,13.9378 47.9007,14.2712 49.5,16.5 Z"/></g>
<g><path style="opacity:1" fill="#4a8635" d="M 43.5,15.5 C 42.4548,20.9774 43.7881,21.6441 47.5,17.5C 49.7583,17.7751 50.0916,18.7751 48.5,20.5C 46.2933,21.6348 43.9599,22.3015 41.5,22.5C 40.1463,19.3024 37.8129,18.1358 34.5,19C 33.7476,19.6708 33.4142,20.5041 33.5,21.5C 33.1667,21.5 32.8333,21.5 32.5,21.5C 30.9582,22.3007 29.2915,22.634 27.5,22.5C 26.1017,19.6443 26.6017,16.9777 29,14.5C 29.7697,15.5981 30.603,15.5981 31.5,14.5C 32.4959,14.4142 33.3292,14.7476 34,15.5C 34.6667,14.8333 35.3333,14.1667 36,13.5C 38.1354,15.2785 40.6354,15.9452 43.5,15.5 Z"/></g>
<g><path style="opacity:1" fill="#d04a33" d="M 41.5,22.5 C 40.8333,23.1667 40.1667,23.8333 39.5,24.5C 35.4595,27.7062 33.4595,26.7062 33.5,21.5C 33.4142,20.5041 33.7476,19.6708 34.5,19C 37.8129,18.1358 40.1463,19.3024 41.5,22.5 Z"/></g>
<g><path style="opacity:1" fill="#518e35" d="M 47.5,17.5 C 47.8417,16.6618 48.5084,16.3284 49.5,16.5C 52.9078,16.5633 55.2411,18.23 56.5,21.5C 62.205,22.1841 66.8716,24.6841 70.5,29C 70.2716,29.3988 69.9382,29.5654 69.5,29.5C 68.5,29.5 67.5,29.5 66.5,29.5C 64.9582,30.3007 63.2915,30.634 61.5,30.5C 61.2586,24.4994 58.7586,23.1661 54,26.5C 53.5172,27.448 53.3505,28.448 53.5,29.5C 54.5,29.5 55.5,29.5 56.5,29.5C 56.2627,30.791 56.596,31.791 57.5,32.5C 55.5069,31.83 53.1735,31.83 50.5,32.5C 49.8333,32.5 49.5,32.1667 49.5,31.5C 51.7593,30.656 52.7593,28.9893 52.5,26.5C 50.8561,26.2865 49.3561,26.6198 48,27.5C 47.3333,22.1667 46.6667,22.1667 46,27.5C 45.0766,26.2412 44.2432,24.9079 43.5,23.5C 43.0894,24.2624 42.9227,25.2624 43,26.5C 42.1841,25.1772 41.0174,24.5106 39.5,24.5C 40.1667,23.8333 40.8333,23.1667 41.5,22.5C 43.9599,22.3015 46.2933,21.6348 48.5,20.5C 50.0916,18.7751 49.7583,17.7751 47.5,17.5 Z"/></g>
<g><path style="opacity:1" fill="#4f8a37" d="M 32.5,21.5 C 32.67,22.8221 32.3366,23.9887 31.5,25C 33.3766,27.126 34.3766,29.626 34.5,32.5C 36.8273,32.7529 38.8273,32.0863 40.5,30.5C 41.5223,30.8555 42.189,31.5222 42.5,32.5C 42.5,34.1667 42.5,35.8333 42.5,37.5C 39.3189,38.3485 36.6523,40.0152 34.5,42.5C 31.4963,39.5001 27.8297,37.8334 23.5,37.5C 22.8075,36.4822 22.1408,35.4822 21.5,34.5C 21.3184,32.4086 21.6518,30.4086 22.5,28.5C 21.9747,27.8076 21.3081,27.3076 20.5,27C 21.7717,25.6932 22.7717,24.1932 23.5,22.5C 24.3857,23.325 24.719,24.325 24.5,25.5C 27.4935,25.8543 28.4935,24.8543 27.5,22.5C 29.2915,22.634 30.9582,22.3007 32.5,21.5 Z"/></g>
<g><path style="opacity:1" fill="#407e35" d="M 32.5,21.5 C 32.8333,21.5 33.1667,21.5 33.5,21.5C 33.4595,26.7062 35.4595,27.7062 39.5,24.5C 41.0174,24.5106 42.1841,25.1772 43,26.5C 42.9227,25.2624 43.0894,24.2624 43.5,23.5C 44.2432,24.9079 45.0766,26.2412 46,27.5C 46.6667,22.1667 47.3333,22.1667 48,27.5C 49.3561,26.6198 50.8561,26.2865 52.5,26.5C 52.7593,28.9893 51.7593,30.656 49.5,31.5C 46.8684,29.9365 44.5351,30.2699 42.5,32.5C 42.189,31.5222 41.5223,30.8555 40.5,30.5C 38.8273,32.0863 36.8273,32.7529 34.5,32.5C 34.3766,29.626 33.3766,27.126 31.5,25C 32.3366,23.9887 32.67,22.8221 32.5,21.5 Z"/></g>
<g><path style="opacity:1" fill="#ce4b33" d="M 61.5,30.5 C 60.3951,31.6005 59.0618,32.2671 57.5,32.5C 56.596,31.791 56.2627,30.791 56.5,29.5C 55.5,29.5 54.5,29.5 53.5,29.5C 53.3505,28.448 53.5172,27.448 54,26.5C 58.7586,23.1661 61.2586,24.4994 61.5,30.5 Z"/></g>
<g><path style="opacity:1" fill="#f1f1f1" d="M 12.5,19.5 C 11.9,22.298 10.9,24.9646 9.5,27.5C 7.01975,28.4154 6.35308,29.9154 7.5,32C 5.83333,34.3333 3.83333,36.3333 1.5,38C 1.72845,38.3988 2.06178,38.5654 2.5,38.5C 2.38929,39.1174 2.05596,39.6174 1.5,40C 2.58218,41.3297 3.24885,42.8297 3.5,44.5C 2.32148,46.5065 2.82148,46.8398 5,45.5C 5.80766,47.5787 5.64099,49.5787 4.5,51.5C 4.16667,50.8333 3.83333,50.1667 3.5,49.5C 2.59053,51.3747 1.2572,52.708 -0.5,53.5C -0.5,43.8333 -0.5,34.1667 -0.5,24.5C 0.749754,24.5774 1.58309,25.244 2,26.5C 3,23.8333 4,23.8333 5,26.5C 6.26351,24.393 8.09685,23.393 10.5,23.5C 10.1568,21.5168 10.8235,20.1834 12.5,19.5 Z"/></g>
<g><path style="opacity:1" fill="#db442d" d="M 66.5,29.5 C 67.5,29.5 68.5,29.5 69.5,29.5C 70.1408,30.4822 70.8075,31.4822 71.5,32.5C 71.3764,33.1067 71.0431,33.44 70.5,33.5C 69.1779,33.33 68.0113,33.6634 67,34.5C 66.5065,32.8659 66.3398,31.1992 66.5,29.5 Z"/></g>
<g><path style="opacity:1" fill="#d0412d" d="M 49.5,31.5 C 49.5,32.1667 49.8333,32.5 50.5,32.5C 50.9754,35.3126 49.9754,37.3126 47.5,38.5C 45.8828,37.962 44.2161,37.6287 42.5,37.5C 42.5,35.8333 42.5,34.1667 42.5,32.5C 44.5351,30.2699 46.8684,29.9365 49.5,31.5 Z"/></g>
<g><path style="opacity:1" fill="#d03f2b" d="M 26.5,28.5 C 31.9836,28.4809 33.6503,30.9809 31.5,36C 24.745,36.7558 23.0783,34.2558 26.5,28.5 Z"/></g>
<g><path style="opacity:1" fill="#e1ddd2" d="M 99.5,21.5 C 99.5,28.1667 99.5,34.8333 99.5,41.5C 98.5111,46.9753 98.1778,52.642 98.5,58.5C 97.5166,54.7016 97.1832,50.7016 97.5,46.5C 96.5,46.5 95.5,46.5 94.5,46.5C 94.7373,47.791 94.404,48.791 93.5,49.5C 93.6716,48.5084 93.3382,47.8417 92.5,47.5C 94.8845,44.2795 94.8845,40.9462 92.5,37.5C 93.1174,37.3893 93.6174,37.056 94,36.5C 94.4645,32.1523 94.9645,27.819 95.5,23.5C 96.4674,22.1938 97.8007,21.5271 99.5,21.5 Z"/></g>
<g><path style="opacity:1" fill="#468435" d="M 66.5,29.5 C 66.3398,31.1992 66.5065,32.8659 67,34.5C 68.0113,33.6634 69.1779,33.33 70.5,33.5C 74.4394,36.7568 74.4394,40.0902 70.5,43.5C 70.8333,44.1667 71.1667,44.8333 71.5,45.5C 69.8614,46.3219 68.1947,46.9886 66.5,47.5C 64.5853,47.7845 62.9187,47.4511 61.5,46.5C 63.7224,46.4413 64.7224,45.2747 64.5,43C 64.0951,39.2606 62.0951,37.9273 58.5,39C 55.6938,41.9372 56.0271,44.4372 59.5,46.5C 58.5398,47.5152 57.3731,47.5152 56,46.5C 54.9701,46.8361 54.4701,47.5028 54.5,48.5C 53.8333,48.5 53.5,48.8333 53.5,49.5C 53.1667,49.5 52.8333,49.5 52.5,49.5C 52.7229,44.9476 51.0563,41.2809 47.5,38.5C 49.9754,37.3126 50.9754,35.3126 50.5,32.5C 53.1735,31.83 55.5069,31.83 57.5,32.5C 59.0618,32.2671 60.3951,31.6005 61.5,30.5C 63.2915,30.634 64.9582,30.3007 66.5,29.5 Z"/></g>
<g><path style="opacity:1" fill="#ba6e28" d="M 2.5,38.5 C 2.83333,38.5 3.16667,38.5 3.5,38.5C 4.83333,40.5 4.83333,42.5 3.5,44.5C 3.24885,42.8297 2.58218,41.3297 1.5,40C 2.05596,39.6174 2.38929,39.1174 2.5,38.5 Z"/></g>
<g><path style="opacity:1" fill="#d8b13b" d="M 21.5,34.5 C 22.1408,35.4822 22.8075,36.4822 23.5,37.5C 27.8297,37.8334 31.4963,39.5001 34.5,42.5C 34.5,46.1667 34.5,49.8333 34.5,53.5C 39.5623,53.8495 41.8956,56.5162 41.5,61.5C 41.5,65.1667 41.5,68.8333 41.5,72.5C 41.1667,72.5 40.8333,72.5 40.5,72.5C 40.6633,70.1432 40.4966,67.8098 40,65.5C 38.6032,67.0703 37.1032,68.4036 35.5,69.5C 34.1779,69.33 33.0113,69.6634 32,70.5C 28.8113,67.5487 25.3113,66.8821 21.5,68.5C 15.1338,67.9698 11.4671,64.4698 10.5,58C 10.7029,55.5941 11.7029,53.5941 13.5,52C 13.2716,51.6012 12.9382,51.4346 12.5,51.5C 10.5476,49.422 9.54757,46.922 9.5,44C 10.4193,36.912 14.4193,33.7453 21.5,34.5 Z"/></g>
<g><path style="opacity:1" fill="#b4a555" d="M 90.5,35.5 C 91.5,35.8333 92.1667,36.5 92.5,37.5C 94.8845,40.9462 94.8845,44.2795 92.5,47.5C 91.1667,48.5 89.8333,49.5 88.5,50.5C 88.5,48.1667 88.5,45.8333 88.5,43.5C 90.0461,41.1175 90.7128,38.4509 90.5,35.5 Z"/></g>
<g><path style="opacity:1" fill="#d23f2b" d="M 61.5,46.5 C 60.8333,46.5 60.1667,46.5 59.5,46.5C 56.0271,44.4372 55.6938,41.9372 58.5,39C 62.0951,37.9273 64.0951,39.2606 64.5,43C 64.7224,45.2747 63.7224,46.4413 61.5,46.5 Z"/></g>
<g><path style="opacity:1" fill="#ac9a57" d="M 59.5,46.5 C 60.1667,46.5 60.8333,46.5 61.5,46.5C 62.9187,47.4511 64.5853,47.7845 66.5,47.5C 66.5,47.8333 66.5,48.1667 66.5,48.5C 62.5,48.5 58.5,48.5 54.5,48.5C 54.4701,47.5028 54.9701,46.8361 56,46.5C 57.3731,47.5152 58.5398,47.5152 59.5,46.5 Z"/></g>
<g><path style="opacity:1" fill="#d9b481" d="M 84.5,42.5 C 85.1614,43.7175 85.8281,45.0508 86.5,46.5C 87.1757,45.3984 87.8423,44.3984 88.5,43.5C 88.5,45.8333 88.5,48.1667 88.5,50.5C 88.5,54.8333 88.5,59.1667 88.5,63.5C 88.5,69.5 88.5,75.5 88.5,81.5C 87.1667,81.5 85.8333,81.5 84.5,81.5C 84.8205,76.3054 84.4872,71.3054 83.5,66.5C 84.4227,62.9359 84.756,59.2693 84.5,55.5C 84.5,51.1667 84.5,46.8333 84.5,42.5 Z"/></g>
<g><path style="opacity:1" fill="#cbc4a1" d="M 19.5,49.5 C 22.6839,51.8418 26.0172,54.0085 29.5,56C 28.3333,57.1667 27.1667,58.3333 26,59.5C 24.5579,55.7251 22.0579,52.8917 18.5,51C 19.056,50.6174 19.3893,50.1174 19.5,49.5 Z"/></g>
<g><path style="opacity:1" fill="#e5dfc7" d="M 42.5,37.5 C 44.2161,37.6287 45.8828,37.962 47.5,38.5C 51.0563,41.2809 52.7229,44.9476 52.5,49.5C 49.5582,54.1436 45.8915,58.1436 41.5,61.5C 41.8956,56.5162 39.5623,53.8495 34.5,53.5C 34.5,49.8333 34.5,46.1667 34.5,42.5C 36.6523,40.0152 39.3189,38.3485 42.5,37.5 Z"/></g>
<g><path style="opacity:1" fill="#b92523" d="M 40.5,40.5 C 47.8247,39.9924 50.6581,43.3258 49,50.5C 46.4406,53.3492 43.2739,54.1825 39.5,53C 35.3339,48.3683 35.6673,44.2017 40.5,40.5 Z"/></g>
<g><path style="opacity:1" fill="#bbac59" d="M 6.5,64.5 C 4.5,61.8333 2.16667,59.5 -0.5,57.5C -0.5,57.1667 -0.5,56.8333 -0.5,56.5C 1.14772,55.1902 2.81439,53.8569 4.5,52.5C 5.57472,57.057 7.24139,61.3903 9.5,65.5C 9.33333,65.8333 9.16667,66.1667 9,66.5C 8.2917,65.6195 7.45837,64.9528 6.5,64.5 Z"/></g>
<g><path style="opacity:1" fill="#ed8636" d="M 54.5,48.5 C 58.5,48.5 62.5,48.5 66.5,48.5C 69.2921,48.6225 71.2921,49.9558 72.5,52.5C 72.5,54.1667 72.5,55.8333 72.5,57.5C 66.1903,56.8096 59.857,56.4763 53.5,56.5C 52.5829,54.3382 52.5829,52.0048 53.5,49.5C 53.5,48.8333 53.8333,48.5 54.5,48.5 Z"/></g>
<g><path style="opacity:1" fill="#9b9050" d="M 77.5,38.5 C 78.1174,38.6107 78.6174,38.944 79,39.5C 80.6989,46.144 80.8655,52.8107 79.5,59.5C 79.1667,60.1667 78.8333,60.8333 78.5,61.5C 77.1667,62.5 75.8333,63.5 74.5,64.5C 78.1142,56.107 79.1142,47.4403 77.5,38.5 Z"/></g>
<g><path style="opacity:1" fill="#f7f5ee" d="M 35.5,10.5 C 39.2984,9.51658 43.2984,9.18325 47.5,9.5C 50.9466,9.81425 54.2799,10.6476 57.5,12C 68.1931,17.8517 74.8598,26.685 77.5,38.5C 79.1142,47.4403 78.1142,56.107 74.5,64.5C 72.4195,67.6421 70.0862,70.6421 67.5,73.5C 64.6421,76.0862 61.6421,78.4195 58.5,80.5C 54.6731,82.1234 50.6731,83.1234 46.5,83.5C 45.8333,83.5 45.5,83.1667 45.5,82.5C 46.791,82.7373 47.791,82.404 48.5,81.5C 62.2779,78.3908 71.2779,70.0575 75.5,56.5C 76.5207,50.8704 76.6873,45.2037 76,39.5C 70.5606,18.6884 57.0606,9.02174 35.5,10.5 Z"/></g>
<g><path style="opacity:1" fill="#b3681e" d="M 92.5,47.5 C 93.3382,47.8417 93.6716,48.5084 93.5,49.5C 93.7693,53.9315 93.436,58.2648 92.5,62.5C 91.1667,62.8333 89.8333,63.1667 88.5,63.5C 88.5,59.1667 88.5,54.8333 88.5,50.5C 89.8333,49.5 91.1667,48.5 92.5,47.5 Z"/></g>
<g><path style="opacity:1" fill="#b86b1e" d="M 84.5,55.5 C 84.756,59.2693 84.4227,62.9359 83.5,66.5C 80.8333,67.5 78.1667,68.5 75.5,69.5C 76.5,66.8333 77.5,64.1667 78.5,61.5C 78.8333,60.8333 79.1667,60.1667 79.5,59.5C 81.1667,58.1667 82.8333,56.8333 84.5,55.5 Z"/></g>
<g><path style="opacity:1" fill="#dab380" d="M 98.5,58.5 C 98.5,58.8333 98.5,59.1667 98.5,59.5C 97.5084,66.6476 97.175,73.9809 97.5,81.5C 95.8333,81.5 94.1667,81.5 92.5,81.5C 93.3789,74.9993 93.3789,68.6659 92.5,62.5C 93.436,58.2648 93.7693,53.9315 93.5,49.5C 94.404,48.791 94.7373,47.791 94.5,46.5C 95.5,46.5 96.5,46.5 97.5,46.5C 97.1832,50.7016 97.5166,54.7016 98.5,58.5 Z"/></g>
<g><path style="opacity:1" fill="#f0be8a" d="M 72.5,52.5 C 72.8333,52.5 73.1667,52.5 73.5,52.5C 73.9462,58.6253 71.6129,62.9586 66.5,65.5C 65.7777,64.4489 64.7777,63.7822 63.5,63.5C 59.4862,63.6655 55.4862,63.4988 51.5,63C 49.9329,60.0944 50.5995,57.9277 53.5,56.5C 59.857,56.4763 66.1903,56.8096 72.5,57.5C 72.5,55.8333 72.5,54.1667 72.5,52.5 Z"/></g>
<g><path style="opacity:1" fill="#eff0cb" d="M 73.5,52.5 C 74.1667,53.8333 74.8333,55.1667 75.5,56.5C 71.2779,70.0575 62.2779,78.3908 48.5,81.5C 50.0311,80.0755 49.6977,79.4088 47.5,79.5C 49.0439,78.086 50.7106,77.7526 52.5,78.5C 55.2456,76.3771 58.079,74.3771 61,72.5C 61.414,72.9574 61.914,73.2907 62.5,73.5C 63.8418,70.8165 65.1751,68.1498 66.5,65.5C 71.6129,62.9586 73.9462,58.6253 73.5,52.5 Z"/></g>
<g><path style="opacity:1" fill="#ed8d41" d="M 52.5,49.5 C 52.8333,49.5 53.1667,49.5 53.5,49.5C 52.5829,52.0048 52.5829,54.3382 53.5,56.5C 50.5995,57.9277 49.9329,60.0944 51.5,63C 55.4862,63.4988 59.4862,63.6655 63.5,63.5C 57.2539,66.7193 51.0872,70.386 45,74.5C 44.3292,73.7476 43.4959,73.4142 42.5,73.5C 41.8333,73.5 41.5,73.1667 41.5,72.5C 41.5,68.8333 41.5,65.1667 41.5,61.5C 45.8915,58.1436 49.5582,54.1436 52.5,49.5 Z"/></g>
<g><path style="opacity:1" fill="#ebecc7" d="M 12.5,51.5 C 12.9382,51.4346 13.2716,51.6012 13.5,52C 11.7029,53.5941 10.7029,55.5941 10.5,58C 11.4671,64.4698 15.1338,67.9698 21.5,68.5C 22.2359,73.0801 24.7359,76.4134 29,78.5C 30.2613,78.2409 31.2613,77.5742 32,76.5C 35.8306,80.4452 39.6639,80.4452 43.5,76.5C 43.6941,78.9118 45.0274,79.9118 47.5,79.5C 49.6977,79.4088 50.0311,80.0755 48.5,81.5C 47.791,82.404 46.791,82.7373 45.5,82.5C 23.9365,82.9362 10.9365,72.6028 6.5,51.5C 7.96651,48.7417 8.63318,49.075 8.5,52.5C 9.95875,52.5674 11.2921,52.2341 12.5,51.5 Z"/></g>
<g><path style="opacity:1" fill="#cac8a6" d="M 40.5,72.5 C 38.2719,72.2231 36.6053,71.2231 35.5,69.5C 37.1032,68.4036 38.6032,67.0703 40,65.5C 40.4966,67.8098 40.6633,70.1432 40.5,72.5 Z"/></g>
<g><path style="opacity:1" fill="#9d612f" d="M 78.5,61.5 C 77.5,64.1667 76.5,66.8333 75.5,69.5C 74.7095,70.4013 73.7095,71.0679 72.5,71.5C 70.9505,72.4408 69.2838,73.1075 67.5,73.5C 70.0862,70.6421 72.4195,67.6421 74.5,64.5C 75.8333,63.5 77.1667,62.5 78.5,61.5 Z"/></g>
<g><path style="opacity:1" fill="#f1f1f1" d="M -0.5,57.5 C 2.16667,59.5 4.5,61.8333 6.5,64.5C 4.89674,64.3118 3.56341,64.8118 2.5,66C 5.1549,64.7403 6.98824,65.5736 8,68.5C 8.33333,68.1667 8.66667,67.8333 9,67.5C 11.6682,71.3341 14.8348,74.6675 18.5,77.5C 18.8333,78.1667 19.1667,78.8333 19.5,79.5C 17.4184,79.3757 15.9184,78.3757 15,76.5C 14.5,77.6667 13.6667,78.5 12.5,79C 13.6667,79.5 14.5,80.3333 15,81.5C 15.414,81.0426 15.914,80.7093 16.5,80.5C 17.4519,82.0453 17.7852,83.712 17.5,85.5C 16.5313,86.3094 15.6979,87.3094 15,88.5C 13.3333,86.8333 11.6667,85.1667 10,83.5C 9,86.1667 8,86.1667 7,83.5C 5.72949,86.1729 5.06283,86.1729 5,83.5C 6.35131,81.981 7.85131,80.6477 9.5,79.5C 8.15811,78.1239 6.82478,76.7906 5.5,75.5C 2.38757,76.3505 2.05424,77.5172 4.5,79C 3.33333,79.5 2.5,80.3333 2,81.5C 1.32924,80.7476 0.495904,80.4142 -0.5,80.5C -0.5,72.8333 -0.5,65.1667 -0.5,57.5 Z"/></g>
<g><path style="opacity:1" fill="#efbb88" d="M 63.5,63.5 C 64.7777,63.7822 65.7777,64.4489 66.5,65.5C 65.1751,68.1498 63.8418,70.8165 62.5,73.5C 61.914,73.2907 61.414,72.9574 61,72.5C 58.079,74.3771 55.2456,76.3771 52.5,78.5C 50.7106,77.7526 49.0439,78.086 47.5,79.5C 45.0274,79.9118 43.6941,78.9118 43.5,76.5C 43.4431,75.391 43.1098,74.391 42.5,73.5C 43.4959,73.4142 44.3292,73.7476 45,74.5C 51.0872,70.386 57.2539,66.7193 63.5,63.5 Z"/></g>
<g><path style="opacity:1" fill="#386c32" d="M 35.5,69.5 C 36.6053,71.2231 38.2719,72.2231 40.5,72.5C 40.8333,72.5 41.1667,72.5 41.5,72.5C 41.5,73.1667 41.8333,73.5 42.5,73.5C 43.1098,74.391 43.4431,75.391 43.5,76.5C 39.6639,80.4452 35.8306,80.4452 32,76.5C 31.2613,77.5742 30.2613,78.2409 29,78.5C 24.7359,76.4134 22.2359,73.0801 21.5,68.5C 25.3113,66.8821 28.8113,67.5487 32,70.5C 33.0113,69.6634 34.1779,69.33 35.5,69.5 Z"/></g>
<g><path style="opacity:1" fill="#f1efe5" d="M 3.5,38.5 C 3.55999,37.9569 3.89333,37.6236 4.5,37.5C 5.17189,38.9492 5.83855,40.2825 6.5,41.5C 6.5,44.8333 6.5,48.1667 6.5,51.5C 10.9365,72.6028 23.9365,82.9362 45.5,82.5C 45.5,83.1667 45.8333,83.5 46.5,83.5C 36.294,85.8301 27.1273,83.4968 19,76.5C 18.6012,76.7284 18.4346,77.0618 18.5,77.5C 14.8348,74.6675 11.6682,71.3341 9,67.5C 8.66667,67.8333 8.33333,68.1667 8,68.5C 6.98824,65.5736 5.1549,64.7403 2.5,66C 3.56341,64.8118 4.89674,64.3118 6.5,64.5C 7.45837,64.9528 8.2917,65.6195 9,66.5C 9.16667,66.1667 9.33333,65.8333 9.5,65.5C 7.24139,61.3903 5.57472,57.057 4.5,52.5C 2.81439,53.8569 1.14772,55.1902 -0.5,56.5C -0.5,55.5 -0.5,54.5 -0.5,53.5C 1.2572,52.708 2.59053,51.3747 3.5,49.5C 3.83333,50.1667 4.16667,50.8333 4.5,51.5C 5.64099,49.5787 5.80766,47.5787 5,45.5C 2.82148,46.8398 2.32148,46.5065 3.5,44.5C 4.83333,42.5 4.83333,40.5 3.5,38.5 Z"/></g>
<g><path style="opacity:1" fill="#d2cec8" d="M 72.5,71.5 C 69.109,77.225 64.4423,81.5583 58.5,84.5C 57.1667,84.8333 55.8333,85.1667 54.5,85.5C 55.8333,83.8333 57.1667,82.1667 58.5,80.5C 61.6421,78.4195 64.6421,76.0862 67.5,73.5C 69.2838,73.1075 70.9505,72.4408 72.5,71.5 Z"/></g>
<g><path style="opacity:1" fill="#f0efee" d="M 83.5,66.5 C 84.4872,71.3054 84.8205,76.3054 84.5,81.5C 83.2502,81.5774 82.4169,82.244 82,83.5C 81.6924,82.6919 81.1924,82.0253 80.5,81.5C 79.5,82.5 78.5,83.5 77.5,84.5C 78.0253,85.1924 78.6919,85.6924 79.5,86C 78.3333,86.5 77.5,87.3333 77,88.5C 75.2293,86.7092 73.396,85.0425 71.5,83.5C 71.4226,82.2502 70.756,81.4169 69.5,81C 71.2705,80.4646 71.6039,79.6313 70.5,78.5C 69.5,79 68.5,79.5 67.5,80C 66.3595,80.7412 66.3595,81.5745 67.5,82.5C 66.5,83.1667 65.5,83.8333 64.5,84.5C 65.0253,85.1924 65.6919,85.6924 66.5,86C 65.244,86.4169 64.5774,87.2502 64.5,88.5C 61.6478,87.2055 61.3144,85.7055 63.5,84C 61.8925,84.0187 60.2259,84.1854 58.5,84.5C 64.4423,81.5583 69.109,77.225 72.5,71.5C 73.7095,71.0679 74.7095,70.4013 75.5,69.5C 78.1667,68.5 80.8333,67.5 83.5,66.5 Z"/></g>
<g><path style="opacity:1" fill="#f3f3f3" d="M 17.5,85.5 C 18.9953,85.4148 19.9953,86.0815 20.5,87.5C 19.0069,89.8258 17.1735,91.8258 15,93.5C 13.3761,91.8419 11.7094,90.1752 10,88.5C 9,91.1667 8,91.1667 7,88.5C 6.16667,89.3333 5.33333,90.1667 4.5,91C 5.66667,91.5 6.5,92.3333 7,93.5C 7.30762,92.6919 7.80762,92.0253 8.5,91.5C 10.1721,94.3371 12.3387,96.6704 15,98.5C 15.4169,97.244 16.2502,96.5774 17.5,96.5C 19.1436,96.8102 20.1436,97.8102 20.5,99.5C 13.5,99.5 6.5,99.5 -0.5,99.5C -0.5,93.1667 -0.5,86.8333 -0.5,80.5C 0.495904,80.4142 1.32924,80.7476 2,81.5C 2.5,80.3333 3.33333,79.5 4.5,79C 2.05424,77.5172 2.38757,76.3505 5.5,75.5C 6.82478,76.7906 8.15811,78.1239 9.5,79.5C 7.85131,80.6477 6.35131,81.981 5,83.5C 5.06283,86.1729 5.72949,86.1729 7,83.5C 8,86.1667 9,86.1667 10,83.5C 11.6667,85.1667 13.3333,86.8333 15,88.5C 15.6979,87.3094 16.5313,86.3094 17.5,85.5 Z"/></g>
<g><path style="opacity:1" fill="#978d4f" d="M 46.5,83.5 C 50.6731,83.1234 54.6731,82.1234 58.5,80.5C 57.1667,82.1667 55.8333,83.8333 54.5,85.5C 53.5,86.1667 52.5,86.8333 51.5,87.5C 42.4045,88.462 33.7379,87.1287 25.5,83.5C 23.8712,82.3747 22.3712,81.0414 21,79.5C 20.6012,79.7284 20.4346,80.0618 20.5,80.5C 19.8333,80.5 19.5,80.1667 19.5,79.5C 19.1667,78.8333 18.8333,78.1667 18.5,77.5C 18.4346,77.0618 18.6012,76.7284 19,76.5C 27.1273,83.4968 36.294,85.8301 46.5,83.5 Z"/></g>
<g><path style="opacity:1" fill="#f4f4f4" d="M 64.5,88.5 C 64.5774,89.7498 65.244,90.5831 66.5,91C 64.6704,93.6613 62.3371,95.8279 59.5,97.5C 60.2427,98.1818 60.9094,98.8485 61.5,99.5C 59.8333,99.5 58.1667,99.5 56.5,99.5C 58.9312,98.2591 58.9312,97.0924 56.5,96C 58.1667,94.3333 59.8333,92.6667 61.5,91C 60.3333,90.5 59.5,89.6667 59,88.5C 58,91.1667 57,91.1667 56,88.5C 54.3333,90.1667 52.6667,91.8333 51,93.5C 50.5831,92.244 49.7498,91.5774 48.5,91.5C 49.5,90.1667 50.5,88.8333 51.5,87.5C 52.5,86.8333 53.5,86.1667 54.5,85.5C 55.8333,85.1667 57.1667,84.8333 58.5,84.5C 60.2259,84.1854 61.8925,84.0187 63.5,84C 61.3144,85.7055 61.6478,87.2055 64.5,88.5 Z"/></g>
<g><path style="opacity:1" fill="#ededeb" d="M 98.5,59.5 C 98.5,67.5 98.5,75.5 98.5,83.5C 97.1667,83.5 95.8333,83.5 94.5,83.5C 93.9607,86.695 94.9607,89.195 97.5,91C 95.8333,92.6667 94.1667,94.3333 92.5,96C 94.0557,96.7202 95.0557,97.8868 95.5,99.5C 92.8333,99.5 90.1667,99.5 87.5,99.5C 88.0906,98.8485 88.7573,98.1818 89.5,97.5C 85.4741,95.8436 84.8074,93.5102 87.5,90.5C 87.7214,89.2652 88.3881,88.2652 89.5,87.5C 88.3147,86.147 86.9814,84.9803 85.5,84C 86.1667,83.6667 86.8333,83.3333 87.5,83C 86.2625,82.7679 85.2625,82.2679 84.5,81.5C 85.8333,81.5 87.1667,81.5 88.5,81.5C 88.5,75.5 88.5,69.5 88.5,63.5C 89.8333,63.1667 91.1667,62.8333 92.5,62.5C 93.3789,68.6659 93.3789,74.9993 92.5,81.5C 94.1667,81.5 95.8333,81.5 97.5,81.5C 97.175,73.9809 97.5084,66.6476 98.5,59.5 Z"/></g>
<g><path style="opacity:1" fill="#b9aa57" d="M 25.5,83.5 C 33.7379,87.1287 42.4045,88.462 51.5,87.5C 50.5,88.8333 49.5,90.1667 48.5,91.5C 45.5,93.8333 42.8333,96.5 40.5,99.5C 40.1667,99.5 39.8333,99.5 39.5,99.5C 37.1002,96.0969 34.1002,93.4302 30.5,91.5C 30.6107,90.8826 30.944,90.3826 31.5,90C 29.2941,87.9633 27.2941,85.7966 25.5,83.5 Z"/></g>
<g><path style="opacity:1" fill="#f3f3f3" d="M 99.5,41.5 C 99.5,60.8333 99.5,80.1667 99.5,99.5C 98.1667,99.5 96.8333,99.5 95.5,99.5C 95.0557,97.8868 94.0557,96.7202 92.5,96C 94.1667,94.3333 95.8333,92.6667 97.5,91C 94.9607,89.195 93.9607,86.695 94.5,83.5C 95.8333,83.5 97.1667,83.5 98.5,83.5C 98.5,75.5 98.5,67.5 98.5,59.5C 98.5,59.1667 98.5,58.8333 98.5,58.5C 98.1778,52.642 98.5111,46.9753 99.5,41.5 Z"/></g>
<g><path style="opacity:1" fill="#b96f24" d="M 25.5,83.5 C 27.2941,85.7966 29.2941,87.9633 31.5,90C 30.944,90.3826 30.6107,90.8826 30.5,91.5C 28.9557,91.7031 27.6223,92.3698 26.5,93.5C 25.5748,92.6431 24.9081,91.6431 24.5,90.5C 22.9723,87.2513 21.6389,83.918 20.5,80.5C 20.4346,80.0618 20.6012,79.7284 21,79.5C 22.3712,81.0414 23.8712,82.3747 25.5,83.5 Z"/></g>
<g><path style="opacity:1" fill="#f2f2f2" d="M 71.5,83.5 C 71.4226,84.7498 70.756,85.5831 69.5,86C 70.756,86.4169 71.4226,87.2502 71.5,88.5C 71.4226,89.7498 70.756,90.5831 69.5,91C 71.3296,93.6613 73.6629,95.8279 76.5,97.5C 75.7573,98.1818 75.0906,98.8485 74.5,99.5C 70.1667,99.5 65.8333,99.5 61.5,99.5C 60.9094,98.8485 60.2427,98.1818 59.5,97.5C 62.3371,95.8279 64.6704,93.6613 66.5,91C 65.244,90.5831 64.5774,89.7498 64.5,88.5C 64.5774,87.2502 65.244,86.4169 66.5,86C 65.6919,85.6924 65.0253,85.1924 64.5,84.5C 65.5,83.8333 66.5,83.1667 67.5,82.5C 66.3595,81.5745 66.3595,80.7412 67.5,80C 68.5,79.5 69.5,79 70.5,78.5C 71.6039,79.6313 71.2705,80.4646 69.5,81C 70.756,81.4169 71.4226,82.2502 71.5,83.5 Z"/></g>
<g><path style="opacity:1" fill="#f4f4f4" d="M 84.5,81.5 C 85.2625,82.2679 86.2625,82.7679 87.5,83C 86.8333,83.3333 86.1667,83.6667 85.5,84C 86.9814,84.9803 88.3147,86.147 89.5,87.5C 88.3881,88.2652 87.7214,89.2652 87.5,90.5C 86.2502,90.4226 85.4169,89.756 85,88.5C 84,91.1667 83,91.1667 82,88.5C 80.2906,90.1752 78.6239,91.8419 77,93.5C 75.2293,91.7092 73.396,90.0425 71.5,88.5C 71.4226,87.2502 70.756,86.4169 69.5,86C 70.756,85.5831 71.4226,84.7498 71.5,83.5C 73.396,85.0425 75.2293,86.7092 77,88.5C 77.5,87.3333 78.3333,86.5 79.5,86C 78.6919,85.6924 78.0253,85.1924 77.5,84.5C 78.5,83.5 79.5,82.5 80.5,81.5C 81.1924,82.0253 81.6924,82.6919 82,83.5C 82.4169,82.244 83.2502,81.5774 84.5,81.5 Z"/></g>
<g><path style="opacity:1" fill="#f0efef" d="M 19.5,79.5 C 19.5,80.1667 19.8333,80.5 20.5,80.5C 21.6389,83.918 22.9723,87.2513 24.5,90.5C 23.4168,90.5394 22.4168,90.8728 21.5,91.5C 20.3875,93.4192 19.0542,95.0858 17.5,96.5C 16.2502,96.5774 15.4169,97.244 15,98.5C 12.3387,96.6704 10.1721,94.3371 8.5,91.5C 7.80762,92.0253 7.30762,92.6919 7,93.5C 6.5,92.3333 5.66667,91.5 4.5,91C 5.33333,90.1667 6.16667,89.3333 7,88.5C 8,91.1667 9,91.1667 10,88.5C 11.7094,90.1752 13.3761,91.8419 15,93.5C 17.1735,91.8258 19.0069,89.8258 20.5,87.5C 19.9953,86.0815 18.9953,85.4148 17.5,85.5C 17.7852,83.712 17.4519,82.0453 16.5,80.5C 15.914,80.7093 15.414,81.0426 15,81.5C 14.5,80.3333 13.6667,79.5 12.5,79C 13.6667,78.5 14.5,77.6667 15,76.5C 15.9184,78.3757 17.4184,79.3757 19.5,79.5 Z"/></g>
<g><path style="opacity:1" fill="#f1f1f1" d="M 56.5,99.5 C 51.1667,99.5 45.8333,99.5 40.5,99.5C 42.8333,96.5 45.5,93.8333 48.5,91.5C 49.7498,91.5774 50.5831,92.244 51,93.5C 52.6667,91.8333 54.3333,90.1667 56,88.5C 57,91.1667 58,91.1667 59,88.5C 59.5,89.6667 60.3333,90.5 61.5,91C 59.8333,92.6667 58.1667,94.3333 56.5,96C 58.9312,97.0924 58.9312,98.2591 56.5,99.5 Z"/></g>
<g><path style="opacity:1" fill="#f1f1f1" d="M 71.5,88.5 C 73.396,90.0425 75.2293,91.7092 77,93.5C 78.6239,91.8419 80.2906,90.1752 82,88.5C 83,91.1667 84,91.1667 85,88.5C 85.4169,89.756 86.2502,90.4226 87.5,90.5C 84.8074,93.5102 85.4741,95.8436 89.5,97.5C 88.7573,98.1818 88.0906,98.8485 87.5,99.5C 83.1667,99.5 78.8333,99.5 74.5,99.5C 75.0906,98.8485 75.7573,98.1818 76.5,97.5C 73.6629,95.8279 71.3296,93.6613 69.5,91C 70.756,90.5831 71.4226,89.7498 71.5,88.5 Z"/></g>
<g><path style="opacity:1" fill="#f2f2f1" d="M 24.5,90.5 C 24.9081,91.6431 25.5748,92.6431 26.5,93.5C 27.6223,92.3698 28.9557,91.7031 30.5,91.5C 34.1002,93.4302 37.1002,96.0969 39.5,99.5C 33.1667,99.5 26.8333,99.5 20.5,99.5C 20.1436,97.8102 19.1436,96.8102 17.5,96.5C 19.0542,95.0858 20.3875,93.4192 21.5,91.5C 22.4168,90.8728 23.4168,90.5394 24.5,90.5 Z"/></g>
</svg>
